<?xml version="1.0" encoding="utf-8"?>
<!-- Generator: Adobe Illustrator 16.0.0, SVG Export Plug-In . SVG Version: 6.00 Build 0)  -->
<!DOCTYPE svg PUBLIC "-//W3C//DTD SVG 1.1//EN" "http://www.w3.org/Graphics/SVG/1.1/DTD/svg11.dtd">
<svg version="1.1" id="Layer_1" xmlns="http://www.w3.org/2000/svg" xmlns:xlink="http://www.w3.org/1999/xlink" x="0px" y="0px"
	 width="512px" height="512px" viewBox="0 0 512 512" enable-background="new 0 0 512 512" xml:space="preserve">
<g>
	<path d="M66.585,142.626l-1.169-7.914c0.58-0.085,58.81-8.61,134.351-12.839c69.814-3.908,169.158-4.842,245.971,12.899
		l-1.801,7.795C298.57,108.99,68.888,142.286,66.585,142.626z"/>
	<path d="M281.333,242.219c-111.712,0-214.282-12.381-215.821-12.571l0.977-7.94c2.304,0.284,232.105,28.016,377.593,0.042
		l1.51,7.856C396.388,239.066,337.692,242.219,281.333,242.219z"/>
	<path d="M261.82,336.608c-28.971,0-55.349-1.506-77.795-3.546c-70.566-6.413-118.6-19.36-119.077-19.49l2.104-7.719
		c0.472,0.129,47.966,12.919,117.879,19.259c64.435,5.842,161.649,7.243,258.853-19.259l2.104,7.719
		C381.383,331.159,316.92,336.608,261.82,336.608z"/>
	<path d="M262.82,435.202c-25.885,0-52.249-2.35-78.801-7.04c-70.938-12.529-119.405-37.844-119.886-38.098l3.735-7.074
		c0.473,0.249,48.037,25.06,117.813,37.342c64.22,11.304,160.983,14.003,257.274-37.334l3.764,7.059
		c-43.462,23.172-90.63,37.591-140.194,42.856C292.149,434.44,277.561,435.202,262.82,435.202z"/>
	<g>
		<path d="M92.777,78.537h-7v-31.27c-0.081-1.101-0.051-4.345,2.549-7.775c3.594-4.742,10.423-7.784,20.295-9.041
			c21.055-2.68,57.823-0.172,91.49,6.241l-1.31,6.876c-33.015-6.288-68.9-8.769-89.297-6.173
			c-13.526,1.722-16.865,6.762-16.755,9.252l0.073,0.328l-0.046,0.138V78.537z"/>
		<path d="M111.563,78.537h-5V47.241c-0.078-0.899-0.113-3.901,2.346-7.145c3.426-4.52,10.028-7.431,19.624-8.653
			c18.82-2.396,37.007,1.167,62.181,6.096c4.024,0.788,8.247,1.615,12.701,2.463l-0.936,4.912
			c-4.463-0.851-8.694-1.679-12.727-2.469c-25.636-5.02-42.572-8.336-60.589-6.042c-14.564,1.854-17.895,7.614-17.62,10.4
			l0.027,0.182l-0.007,0.127V78.537z"/>
		<path d="M404.441,78.537h-5l0.027-31.791c0.267-2.729-3.063-8.489-17.628-10.343c-18.019-2.293-34.953,1.022-60.588,6.042
			c-4.033,0.79-8.264,1.618-12.728,2.469l-0.936-4.912c4.455-0.849,8.678-1.675,12.702-2.463c25.172-4.93,43.358-8.492,62.18-6.096
			c9.597,1.222,16.199,4.133,19.624,8.653c2.459,3.244,2.424,6.246,2.346,7.145V78.537z"/>
		<path d="M422.903,78.537h-7l0.027-31.903c0.098-2.495-3.254-7.52-16.756-9.239c-20.395-2.597-56.28-0.115-89.296,6.173
			l-1.311-6.876c33.668-6.413,70.436-8.921,91.491-6.241c9.872,1.257,16.7,4.299,20.294,9.041c2.601,3.43,2.631,6.673,2.55,7.775
			V78.537z"/>
		<path d="M110.057,78.705l-2.037-3.442c0.403-0.239,40.972-23.954,94.699-30.138l0.457,3.974
			C150.331,55.181,110.453,78.471,110.057,78.705z"/>
		<path d="M400.948,78.705c-0.396-0.234-40.275-23.524-93.119-29.606l0.457-3.974c53.727,6.184,94.296,29.899,94.699,30.138
			L400.948,78.705z"/>
		<path d="M313.22,44.089l-7.992-0.356c0.354-7.926-2.298-10.402-2.979-10.905c-35.325-8.773-53.619-7.313-79.471-3.864
			c-9.159,1.221-15.544,3.946-17.981,7.671c-1.434,2.194-1.047,4.117-1.042,4.134l-7.688,2.211
			c-0.156-0.541-1.42-5.438,2.036-10.724c3.837-5.869,11.784-9.645,23.619-11.223c26.131-3.486,46.026-5.078,82.968,4.158
			l0.464,0.146C306.047,25.682,313.888,29.13,313.22,44.089z"/>
		<path d="M302.555,52.522h-95.728c-2.036,0-3.825-0.758-5.174-2.191c-3.159-3.356-2.891-9.385-2.85-10.062l4.991,0.303
			l-2.496-0.151l2.496,0.146c-0.097,1.735,0.225,4.991,1.503,6.343c0.407,0.43,0.865,0.614,1.53,0.614h95.728
			c0.348-0.025,2.434-0.379,2.434-4.762h5C309.989,50.481,305.126,52.522,302.555,52.522z"/>
		<path d="M272.997,68.211h-35.327l1.282-27.853c0.034-5.2,4.274-9.421,9.482-9.421h12.511c5.188,0,9.416,4.187,9.482,9.359
			L272.997,68.211z M242.906,63.211h24.611l-2.088-22.791c0-2.472-2.012-4.483-4.483-4.483h-12.511
			c-2.472,0-4.482,2.011-4.482,4.483l-0.002,0.115L242.906,63.211z"/>
		<path d="M256.223,494.697c-0.017-0.001-0.092-0.006-0.223-0.015c-0.131,0.009-0.206,0.014-0.223,0.015l-0.001-0.029
			c-4.979-0.338-50.436-3.557-95.337-11.142c-27.976-4.727-50.328-10.211-66.435-16.302C71.796,458.827,61,449.132,61,437.587
			v-43.729l1.989-5.968L61,383.168v-68.772l1.854-4.515L61,306.055v-76.079l1.918-5.274L61,220.626v-76.16l2.056-7.194L61,132.028
			V98.905c0-12.383,10.075-22.458,22.458-22.458h345.083c12.384,0,22.459,10.075,22.459,22.458v33.123l-2.056,5.244l2.056,7.195
			v76.16l-1.918,4.075l1.918,5.274v76.079l-1.854,3.826l1.854,4.515v68.772l-1.989,4.724l1.989,5.966v43.729
			c0,11.545-10.796,21.24-33.004,29.638c-16.106,6.091-38.458,11.575-66.435,16.302c-44.901,7.585-90.358,10.804-95.336,11.142
			L256.223,494.697z M71,395.481v42.105c0,6.218,8.871,22.179,91.04,36.067c43.361,7.33,87.296,10.544,93.96,11.006
			c6.665-0.462,50.599-3.676,93.959-11.006c82.169-13.889,91.04-29.85,91.04-36.067v-42.105l-2.667-7.999l2.667-6.333v-64.78
			l-2.803-6.823l2.803-5.785v-72.022l-2.738-7.529l2.738-5.817v-72.524l-2.601-9.099l2.601-6.632V98.905
			c0-6.87-5.589-12.458-12.459-12.458H83.458C76.589,86.447,71,92.036,71,98.905v31.232l2.6,6.632l-2.6,9.098v72.523l2.738,5.817
			L71,231.738v72.022l2.802,5.785L71,316.368v64.78l2.667,6.332L71,395.481z"/>
	</g>
</g>
</svg>
