<svg id="Layer_1" data-name="Layer 1" xmlns="http://www.w3.org/2000/svg" viewBox="0 0 390 476.41"><defs><style>.cls-1{fill:#f1ed75;}</style></defs><title>water_tank</title><path class="cls-1" d="M573.81,190.74l-1.17-7.91c0.58-.09,58.81-8.61,134.35-12.84,69.81-3.91,169.16-4.84,246,12.9l-1.8,7.79C805.79,157.11,576.11,190.4,573.81,190.74Z" transform="translate(-568.22 -66.41)"/><path class="cls-1" d="M788.55,290.34c-111.71,0-214.28-12.38-215.82-12.57l1-7.94c2.3,0.28,232.1,28,377.59,0l1.51,7.86C903.61,287.18,844.91,290.34,788.55,290.34Z" transform="translate(-568.22 -66.41)"/><path class="cls-1" d="M769,384.73c-29,0-55.35-1.51-77.79-3.55-70.57-6.41-118.6-19.36-119.08-19.49l2.1-7.72c0.47,0.13,48,12.92,117.88,19.26C756.59,379.07,853.8,380.47,951,354l2.1,7.72C888.6,379.28,824.14,384.73,769,384.73Z" transform="translate(-568.22 -66.41)"/><path class="cls-1" d="M770,483.32a453.2,453.2,0,0,1-78.8-7c-70.94-12.53-119.4-37.84-119.89-38.1l3.74-7.07c0.47,0.25,48,25.06,117.81,37.34,64.22,11.3,161,14,257.27-37.33l3.76,7.06A382.4,382.4,0,0,1,813.75,481,413.78,413.78,0,0,1,770,483.32Z" transform="translate(-568.22 -66.41)"/><path class="cls-1" d="M600,126.65h-7V95.38a11.69,11.69,0,0,1,2.55-7.78c3.59-4.74,10.42-7.78,20.29-9,21.05-2.68,57.82-.17,91.49,6.24L706,91.69c-33-6.29-68.9-8.77-89.3-6.17-13.53,1.72-16.86,6.76-16.75,9.25L600,95.09l0,0.14v31.42h0Z" transform="translate(-568.22 -66.41)"/><path class="cls-1" d="M618.78,126.65h-5V95.36a10.59,10.59,0,0,1,2.35-7.15c3.43-4.52,10-7.43,19.62-8.65,18.82-2.4,37,1.17,62.18,6.1,4,0.79,8.25,1.62,12.7,2.46L709.7,93c-4.46-.85-8.69-1.68-12.73-2.47-25.64-5-42.57-8.34-60.59-6-14.56,1.85-17.9,7.61-17.62,10.4l0,0.18v31.55h0Z" transform="translate(-568.22 -66.41)"/><path class="cls-1" d="M911.66,126.65h-5l0-31.79c0.27-2.73-3.06-8.49-17.63-10.34-18-2.29-35,1-60.59,6-4,.79-8.26,1.62-12.73,2.47l-0.94-4.91c4.45-.85,8.68-1.67,12.7-2.46,25.17-4.93,43.36-8.49,62.18-6.1,9.6,1.22,16.2,4.13,19.62,8.65a10.59,10.59,0,0,1,2.35,7.15v31.3h0Z" transform="translate(-568.22 -66.41)"/><path class="cls-1" d="M930.12,126.65h-7l0-31.9c0.1-2.49-3.25-7.52-16.76-9.24-20.39-2.6-56.28-.12-89.3,6.17l-1.31-6.88c33.67-6.41,70.44-8.92,91.49-6.24,9.87,1.26,16.7,4.3,20.29,9a11.68,11.68,0,0,1,2.55,7.78v31.27h0Z" transform="translate(-568.22 -66.41)"/><path class="cls-1" d="M617.28,126.82l-2-3.44c0.4-.24,41-24,94.7-30.14l0.46,4C657.55,103.3,617.67,126.59,617.28,126.82Z" transform="translate(-568.22 -66.41)"/><path class="cls-1" d="M908.17,126.82c-0.4-.23-40.27-23.52-93.12-29.61l0.46-4c53.73,6.18,94.3,29.9,94.7,30.14Z" transform="translate(-568.22 -66.41)"/><path class="cls-1" d="M820.44,92.21l-8-.36c0.35-7.93-2.3-10.4-3-10.9-35.33-8.77-53.62-7.31-79.47-3.86-9.16,1.22-15.54,3.95-18,7.67a5.94,5.94,0,0,0-1,4.13l-7.69,2.21a13.56,13.56,0,0,1,2-10.72c3.84-5.87,11.78-9.65,23.62-11.22,26.13-3.49,46-5.08,83,4.16l0.46,0.15C813.27,73.8,821.11,77.25,820.44,92.21Z" transform="translate(-568.22 -66.41)"/><path class="cls-1" d="M809.78,100.64H714a6.93,6.93,0,0,1-5.17-2.19c-3.16-3.36-2.89-9.39-2.85-10.06l5,0.3-2.5-.15,2.5,0.15c-0.1,1.74.23,5,1.5,6.34a1.92,1.92,0,0,0,1.53.61h95.73c0.35,0,2.43-.38,2.43-4.76h5C817.21,98.6,812.35,100.64,809.78,100.64Z" transform="translate(-568.22 -66.41)"/><path class="cls-1" d="M780.22,116.33H744.89l1.28-27.85a9.49,9.49,0,0,1,9.48-9.42h12.51a9.49,9.49,0,0,1,9.48,9.36Zm-30.09-5h24.61l-2.09-22.79a4.49,4.49,0,0,0-4.48-4.48H755.66a4.49,4.49,0,0,0-4.48,4.48v0.12Z" transform="translate(-568.22 -66.41)"/><path class="cls-1" d="M763.44,542.81l-0.22,0-0.22,0v0c-5-.34-50.44-3.56-95.34-11.14-28-4.73-50.33-10.21-66.43-16.3-22.21-8.4-33-18.09-33-29.64V442l2-6-2-4.72V362.51l1.85-4.52-1.85-3.83V278.09l1.92-5.27-1.92-4.08V192.58l2.06-7.19-2.06-5.24V147a22.48,22.48,0,0,1,22.46-22.46H935.76A22.48,22.48,0,0,1,958.22,147v33.12l-2.06,5.24,2.06,7.2v76.16l-1.92,4.07,1.92,5.27v76.08L956.37,358l1.85,4.52v68.77l-2,4.72,2,6V485.7c0,11.55-10.8,21.24-33,29.64-16.11,6.09-38.46,11.58-66.43,16.3-44.9,7.58-90.36,10.8-95.34,11.14v0ZM578.22,443.6V485.7c0,6.22,8.87,22.18,91,36.07,43.36,7.33,87.3,10.54,94,11,6.67-.46,50.6-3.68,94-11,82.17-13.89,91-29.85,91-36.07V443.6l-2.67-8,2.67-6.33V364.49l-2.8-6.82,2.8-5.79v-72l-2.74-7.53,2.74-5.82V194l-2.6-9.1,2.6-6.63V147a12.47,12.47,0,0,0-12.46-12.46H590.68A12.47,12.47,0,0,0,578.22,147v31.23l2.6,6.63-2.6,9.1v72.52l2.74,5.82-2.74,7.53v72l2.8,5.79-2.8,6.82v64.78l2.67,6.33Z" transform="translate(-568.22 -66.41)"/></svg>